<svg width="194" height="194" xmlns="http://www.w3.org/2000/svg" xmlns:xlink="http://www.w3.org/1999/xlink" overflow="hidden"><circle cx="97" cy="97" r="97" stroke="#FFFFFF" stroke-width="4.79012" fill="#D2003C"/><path d="M94 9.2C73.7002 9.90142 54.268 17.6036 39 31L66 31 94 16.6 94 9.2ZM100 9.2 100 16.6 128 31 155 31C139.732 17.6036 120.3 9.90142 100 9.2ZM32.8 37C23.6204 46.7316 16.7804 58.428 12.8 71.2L28.8 98.8 51.8 95.2 72.8 59 64.4 37 32.8 37ZM129.6 37 121.2 59 142.2 95.2 165.2 98.8 181 71.4C177.106 58.5751 170.334 46.8092 161.2 37L129.6 37ZM79.6 63 59.4 98.2 77.2 129 116.8 129 134.6 98.2 114.4 63 79.6 63ZM10.8 79.6C9.62359 85.3258 9.02061 91.1546 9 97 9.01641 111.444 12.5882 125.663 19.4 138.4L26.8 134 25.4 105 10.8 79.6ZM183.2 79.8 168.6 105 167.2 134 174.6 138.4C181.412 125.663 184.984 111.444 185 97 184.966 91.2215 184.363 85.4603 183.2 79.8ZM77.2 137 61.8 156 77.2 182.6C83.6877 184.148 90.3304 184.953 97 185 103.67 184.953 110.312 184.148 116.8 182.6L132.2 156 116.8 137 77.2 137ZM29.4 139.6 22.4 143.6C33.1507 160.859 49.5463 173.862 68.8 180.4L54.8 155.8 29.4 139.6ZM164.6 139.6 139.2 155.8 125.2 180.2C144.423 173.713 160.815 160.784 171.6 143.6L164.6 139.6Z" stroke="#FFFFFF" stroke-width="4.79012" fill="#D2003C"/></svg>