<svg width="20" height="20" xmlns="http://www.w3.org/2000/svg" xmlns:xlink="http://www.w3.org/1999/xlink" overflow="hidden"><defs><symbol viewBox="0 0 20 20" id="search" fill="currentColor" overflow="hidden"><path d="M8 14.6C4.3 14.6 1.4 11.6 1.4 8 1.4 4.3 4.4 1.4 8 1.4 11.7 1.4 14.6 4.4 14.6 8 14.6 11.7 11.7 14.6 8 14.6ZM20 19 14.1 13.1C15.3 11.7 16 10 16 8 16 3.6 12.4 0 8 0 3.6 0 0 3.6 0 8 0 12.4 3.6 16 8 16 10 16 11.7 15.3 13.1 14.1L19 20Z" fill="#FFFFFF"/></symbol></defs><use width="100%" height="100%" xlink:href="#search" fill="#FFFFFF"></use></svg>